
<svg width="28" height="27" viewBox="0 0 28 27" fill="none" xmlns="http://www.w3.org/2000/svg">
<path d="M14.5177 21.4885L14.0012 21.1762L13.4842 21.4876L6.91333 25.446L6.91154 25.447C6.4691 25.7148 5.92727 25.3234 6.04408 24.8195C6.04411 24.8194 6.04415 24.8192 6.04418 24.819L7.78575 17.3462L7.92269 16.7586L7.4667 16.3634L1.65586 11.3284L1.65551 11.3281C1.26121 10.9868 1.47965 10.3502 1.9828 10.3102L1.98281 10.3102L1.98809 10.3098L9.63559 9.66062L10.2359 9.60966L10.4714 9.05513L13.4639 2.00929L13.4639 2.00929L13.4656 2.00541C13.6608 1.54019 14.3395 1.54019 14.5348 2.00541L14.5361 2.00855L17.5286 9.07022L17.7639 9.62545L18.3648 9.67645L26.0123 10.3256L26.0123 10.3256L26.0175 10.3261C26.5207 10.3661 26.7391 11.0026 26.3448 11.344L26.3445 11.3443L20.5337 16.3793L20.0777 16.7744L20.2146 17.362L21.9562 24.8349C22.0734 25.339 21.5314 25.7307 21.0888 25.4629L21.0885 25.4627L14.5177 21.4885Z" fill="currentColor" stroke="#FFCA00" stroke-width="2"/>
</svg>
