<svg width="41" height="40" viewBox="0 0 41 40" fill="currentColor" xmlns="http://www.w3.org/2000/svg">
<path d="M24.2525 22.5477L23.797 23.0272C23.797 23.0272 22.7144 24.167 19.7594 21.0559C16.8044 17.9448 17.887 16.8051 17.887 16.8051L18.1738 16.5031C18.8804 15.7592 18.947 14.565 18.3305 13.6931L17.0695 11.9096C16.3066 10.8305 14.8322 10.688 13.9577 11.6086L12.3881 13.2611C11.9545 13.7177 11.6639 14.3094 11.6992 14.9659C11.7893 16.6455 12.507 20.259 16.5116 24.4752C20.7584 28.9462 24.7431 29.1239 26.3726 28.9631C26.888 28.9122 27.3362 28.6343 27.6974 28.254L29.118 26.7584C30.0769 25.7489 29.8065 24.0182 28.5796 23.312L26.6691 22.2123C25.8635 21.7486 24.8821 21.8848 24.2525 22.5477Z" fill="currentColor"/>
<path d="M21.9558 9.87983C22.022 9.47094 22.4085 9.19357 22.8174 9.25976C22.8427 9.26461 22.9242 9.27983 22.9668 9.28933C23.0522 9.30834 23.1712 9.33759 23.3196 9.38082C23.6164 9.46726 24.031 9.60967 24.5286 9.8378C25.5249 10.2946 26.8507 11.0936 28.2265 12.4694C29.6023 13.8452 30.4013 15.171 30.858 16.1673C31.0862 16.6649 31.2286 17.0795 31.315 17.3763C31.3582 17.5247 31.3875 17.6437 31.4065 17.729C31.416 17.7717 31.423 17.8059 31.4278 17.8313L31.4336 17.8625C31.4997 18.2713 31.2249 18.6739 30.816 18.7401C30.4083 18.8061 30.0242 18.53 29.9564 18.1231C29.9543 18.1121 29.9485 18.0828 29.9424 18.0551C29.93 17.9997 29.9087 17.9119 29.8749 17.7957C29.8072 17.5634 29.6897 17.2181 29.4945 16.7924C29.1047 15.9421 28.4037 14.7679 27.1658 13.53C25.928 12.2922 24.7538 11.5912 23.9035 11.2013C23.4778 11.0062 23.1325 10.8887 22.9001 10.821C22.784 10.7871 22.638 10.7536 22.5826 10.7413C22.1756 10.6735 21.8898 10.2876 21.9558 9.87983Z" fill="currentColor"/>
<path fill-rule="evenodd" clip-rule="evenodd" d="M22.182 13.3293C22.2958 12.931 22.7109 12.7004 23.1092 12.8142L22.9032 13.5354C23.1092 12.8142 23.1092 12.8142 23.1092 12.8142L23.1107 12.8146L23.1122 12.8151L23.1155 12.816L23.1233 12.8184L23.1431 12.8245C23.1581 12.8293 23.177 12.8356 23.1994 12.8436C23.2443 12.8595 23.3037 12.8822 23.3765 12.9134C23.5222 12.9758 23.7212 13.0722 23.9658 13.217C24.4552 13.5066 25.1234 13.9878 25.9084 14.7728C26.6934 15.5578 27.1745 16.2259 27.4642 16.7154C27.6089 16.9599 27.7053 17.159 27.7678 17.3047C27.799 17.3775 27.8217 17.4368 27.8376 17.4817C27.8456 17.5042 27.8518 17.523 27.8567 17.5381L27.8628 17.5579L27.8651 17.5656L27.8661 17.569L27.8665 17.5705C27.8665 17.5705 27.867 17.572 27.1458 17.778L27.867 17.572C27.9808 17.9702 27.7501 18.3853 27.3519 18.4991C26.957 18.6119 26.5455 18.3862 26.4276 17.9941L26.4239 17.9834C26.4186 17.9683 26.4076 17.9388 26.3891 17.8956C26.3521 17.8092 26.285 17.668 26.1734 17.4794C25.9504 17.1027 25.5477 16.5334 24.8477 15.8334C24.1478 15.1335 23.5785 14.7308 23.2018 14.5078C23.0132 14.3962 22.872 14.3291 22.7856 14.2921C22.7424 14.2736 22.7128 14.2626 22.6978 14.2572L22.687 14.2535C22.295 14.1357 22.0692 13.7242 22.182 13.3293Z" fill="currentColor"/>
</svg>
