<svg width="41" height="40" viewBox="0 0 41 40" fill="currentColor" xmlns="http://www.w3.org/2000/svg">
<path fill-rule="evenodd" clip-rule="evenodd" d="M10.675 18.8488C16.5806 16.2759 20.5186 14.5796 22.489 13.76C28.1148 11.42 29.2838 11.0136 30.0457 11.0001C30.2133 10.9972 30.588 11.0387 30.8307 11.2357C31.0356 11.402 31.092 11.6266 31.119 11.7843C31.146 11.9419 31.1796 12.3011 31.1529 12.5818C30.848 15.785 29.5289 23.5585 28.8578 27.1462C28.5738 28.6643 28.0146 29.1733 27.4733 29.2231C26.2969 29.3314 25.4036 28.4457 24.2642 27.6988C22.4812 26.53 21.474 25.8025 19.7433 24.662C17.7432 23.3439 19.0398 22.6195 20.1797 21.4356C20.478 21.1258 25.6612 16.4112 25.7616 15.9835C25.7741 15.93 25.7858 15.7306 25.6673 15.6253C25.5489 15.52 25.374 15.556 25.2479 15.5847C25.0691 15.6253 22.2208 17.5079 16.703 21.2326C15.8945 21.7877 15.1622 22.0582 14.5061 22.044C13.7828 22.0284 12.3915 21.6351 11.3571 21.2988C10.0885 20.8865 9.08019 20.6684 9.16799 19.9681C9.21372 19.6033 9.71607 19.2302 10.675 18.8488Z" fill="currentColor"/>
</svg>
