<svg width="41" height="40" viewBox="0 0 41 40" fill="currentColor" xmlns="http://www.w3.org/2000/svg">
<path d="M22.9537 18.2465C22.8785 18.2466 22.8061 18.2176 22.7516 18.1658C22.6972 18.114 22.6647 18.0432 22.6609 17.9681C22.6111 16.9721 22.1419 16.4844 21.1843 16.4329C21.108 16.4268 21.037 16.3912 20.9866 16.3336C20.9363 16.276 20.9104 16.201 20.9145 16.1245C20.9186 16.0481 20.9525 15.9763 21.0088 15.9245C21.0651 15.8726 21.1394 15.8449 21.2159 15.847C22.4796 15.9167 23.182 16.6383 23.2468 17.9388C23.2487 17.9773 23.243 18.0158 23.2301 18.0521C23.2171 18.0884 23.1971 18.1218 23.1713 18.1504C23.1454 18.1789 23.1142 18.2021 23.0794 18.2186C23.0445 18.2352 23.0068 18.2446 22.9683 18.2465H22.9537Z" fill="currentColor"/>
<path d="M24.4526 18.7513H24.4595C24.5363 18.7511 24.61 18.7209 24.6648 18.6671C24.7196 18.6133 24.7511 18.5402 24.7526 18.4634C24.7784 17.3178 24.4279 16.3424 23.7229 15.5713C23.018 14.8003 22.0266 14.3627 20.7759 14.2712C20.6981 14.2655 20.6213 14.2909 20.5623 14.3419C20.5034 14.3928 20.467 14.4651 20.4614 14.5429C20.4557 14.6206 20.4811 14.6974 20.5321 14.7564C20.583 14.8154 20.6553 14.8517 20.7331 14.8574C21.8446 14.9388 22.6783 15.3009 23.2902 15.9685C23.9022 16.6362 24.1887 17.4483 24.1661 18.4512C24.1643 18.529 24.1935 18.6043 24.2472 18.6606C24.3009 18.7169 24.3748 18.7495 24.4526 18.7513Z" fill="currentColor"/>
<path d="M26.0006 19.3535C25.9232 19.3534 25.8489 19.3228 25.794 19.2682C25.739 19.2137 25.7078 19.1396 25.7072 19.0622C25.6936 17.2684 25.177 15.8982 24.1278 14.8741C23.0911 13.8646 21.7816 13.3466 20.2349 13.3354C20.1964 13.3353 20.1582 13.3276 20.1227 13.3127C20.0871 13.2978 20.0549 13.2761 20.0277 13.2488C19.9729 13.1935 19.9422 13.1188 19.9425 13.0409C19.9428 12.9631 19.974 12.8886 20.0292 12.8337C20.0844 12.7789 20.1592 12.7483 20.237 12.7485H20.2394C21.9424 12.7611 23.3884 13.3347 24.5375 14.4543C25.6866 15.5738 26.2791 17.1256 26.2944 19.0587C26.295 19.1364 26.2646 19.2113 26.2101 19.2667C26.1555 19.3221 26.0812 19.3536 26.0034 19.3542L26.0006 19.3535Z" fill="currentColor"/>
<path d="M21.8926 21.6448C21.6705 21.9184 21.258 21.8836 21.258 21.8836C18.2431 21.1139 17.4362 18.06 17.4362 18.06C17.4362 18.06 17.4 17.6475 17.675 17.4254L18.2198 16.9923C18.4899 16.7841 18.6622 16.279 18.3872 15.7858C18.1763 15.4155 17.9469 15.0561 17.7 14.7087C17.4602 14.3812 16.9015 13.7104 16.8994 13.7083C16.6299 13.3905 16.2338 13.3167 15.8161 13.5342C15.8148 13.5342 15.8131 13.5348 15.8114 13.5353C15.8099 13.5358 15.8084 13.5363 15.8074 13.5363C15.3919 13.7757 15.0173 14.0798 14.6976 14.4372C14.6965 14.4394 14.6954 14.4404 14.6943 14.4415C14.6933 14.4424 14.6923 14.4434 14.6913 14.4452C14.4333 14.7567 14.2856 15.0619 14.2482 15.3611C14.2404 15.4052 14.2378 15.45 14.2402 15.4948C14.2388 15.6269 14.2589 15.7583 14.2997 15.8839L14.314 15.8937C14.4442 16.356 14.77 17.126 15.4781 18.4098C15.8831 19.1524 16.3501 19.8594 16.8743 20.5232C17.1369 20.8559 17.4184 21.1733 17.7174 21.4739C17.721 21.4775 17.7246 21.4811 17.7281 21.4846C17.7352 21.4918 17.7423 21.4989 17.7495 21.5059L17.8455 21.602C18.146 21.9009 18.4635 22.1825 18.7962 22.4451C19.4601 22.9693 20.1672 23.4364 20.9099 23.8413C22.1934 24.5494 22.9641 24.8752 23.4257 25.0054L23.4354 25.0197C23.5611 25.0606 23.6925 25.0808 23.8246 25.0795C23.8694 25.0817 23.9142 25.0789 23.9583 25.0712C24.2579 25.0357 24.563 24.8882 24.8735 24.6288C24.8753 24.6278 24.8763 24.6268 24.8772 24.6258C24.8783 24.6247 24.8793 24.6236 24.8815 24.6225C25.2389 24.3027 25.5431 23.9281 25.7827 23.5127C25.7827 23.5117 25.7831 23.5102 25.7836 23.5087C25.784 23.507 25.7845 23.5053 25.7845 23.504C26.002 23.0863 25.9282 22.6901 25.6087 22.4204C25.6083 22.4204 25.5822 22.3989 25.5381 22.3625C25.357 22.2133 24.8716 21.8134 24.6082 21.6197C24.2612 21.3729 23.9021 21.1435 23.5322 20.9325C23.0386 20.6575 22.5345 20.8299 22.3257 21.1L21.8926 21.6448Z" fill="currentColor"/>
<path fill-rule="evenodd" clip-rule="evenodd" d="M28.9126 10.8597C28.3361 10.3278 26.0066 8.63667 20.8177 8.6137C20.8177 8.6137 14.6986 8.2447 11.7157 10.9808C10.0552 12.6416 9.47111 15.0718 9.40949 18.0847C9.34788 21.0975 9.26816 26.7438 14.7108 28.2748H14.716L14.7126 30.611C14.7126 30.611 14.6778 31.5568 15.3005 31.7496C15.9292 31.9448 16.3411 31.4765 16.8782 30.8657C16.9847 30.7447 17.0961 30.618 17.2151 30.4898C17.6099 30.0644 18.155 29.4396 18.5658 28.962C22.2881 29.2753 25.1509 28.5592 25.476 28.4534C25.5431 28.4316 25.6382 28.4075 25.7561 28.3775C26.9587 28.0717 30.5422 27.1605 31.1721 22.019C31.8861 16.1997 30.8268 12.5188 28.9126 10.8597ZM29.5433 21.6016C29.0177 25.8462 26.1688 26.5091 25.1423 26.7479C25.0288 26.7743 24.9375 26.7956 24.8742 26.8159C24.6037 26.9029 22.0893 27.5285 18.9274 27.322C18.9274 27.322 16.5715 30.1643 15.8356 30.9034C15.7207 31.0189 15.5856 31.0656 15.4955 31.0426C15.3687 31.0116 15.3339 30.8616 15.3353 30.6423C15.3374 30.329 15.3555 26.7602 15.3555 26.7602C10.9036 25.5242 11.0074 20.9901 11.0664 18.4166C11.0684 18.3287 11.0703 18.243 11.0721 18.1598C11.1243 15.6434 11.597 13.5819 13.0013 12.1954C15.5243 9.91005 20.7219 10.2515 20.7219 10.2515C25.1112 10.2707 27.2145 11.5925 27.7022 12.0352C29.3216 13.4218 30.1466 16.7396 29.5433 21.6002V21.6016Z" fill="currentColor"/>
</svg>
