<svg width="41" height="40" viewBox="0 0 41 40" fill="currentColor" xmlns="http://www.w3.org/2000/svg">
<path d="M8.9295 32L10.6165 25.837C9.5755 24.033 9.0285 21.988 9.0295 19.891C9.0325 13.335 14.3675 8 20.9225 8C24.1035 8.001 27.0895 9.24 29.3355 11.488C31.5805 13.736 32.8165 16.724 32.8155 19.902C32.8125 26.459 27.4775 31.794 20.9225 31.794C18.9325 31.793 16.9715 31.294 15.2345 30.346L8.9295 32ZM15.5265 28.193C17.2025 29.188 18.8025 29.784 20.9185 29.785C26.3665 29.785 30.8045 25.351 30.8075 19.9C30.8095 14.438 26.3925 10.01 20.9265 10.008C15.4745 10.008 11.0395 14.442 11.0375 19.892C11.0365 22.117 11.6885 23.783 12.7835 25.526L11.7845 29.174L15.5265 28.193ZM26.9135 22.729C26.8395 22.605 26.6415 22.531 26.3435 22.382C26.0465 22.233 24.5855 21.514 24.3125 21.415C24.0405 21.316 23.8425 21.266 23.6435 21.564C23.4455 21.861 22.8755 22.531 22.7025 22.729C22.5295 22.927 22.3555 22.952 22.0585 22.803C21.7615 22.654 20.8035 22.341 19.6685 21.328C18.7855 20.54 18.1885 19.567 18.0155 19.269C17.8425 18.972 17.9975 18.811 18.1455 18.663C18.2795 18.53 18.4425 18.316 18.5915 18.142C18.7425 17.97 18.7915 17.846 18.8915 17.647C18.9905 17.449 18.9415 17.275 18.8665 17.126C18.7915 16.978 18.1975 15.515 17.9505 14.92C17.7085 14.341 17.4635 14.419 17.2815 14.41L16.7115 14.4C16.5135 14.4 16.1915 14.474 15.9195 14.772C15.6475 15.07 14.8795 15.788 14.8795 17.251C14.8795 18.714 15.9445 20.127 16.0925 20.325C16.2415 20.523 18.1875 23.525 21.1685 24.812C21.8775 25.118 22.4315 25.301 22.8625 25.438C23.5745 25.664 24.2225 25.632 24.7345 25.556C25.3055 25.471 26.4925 24.837 26.7405 24.143C26.9885 23.448 26.9885 22.853 26.9135 22.729Z" fill="currentColor"/>
</svg>
