<svg width="47" height="47" viewBox="0 0 47 47" fill="none" xmlns="http://www.w3.org/2000/svg">
<path fill-rule="evenodd" clip-rule="evenodd" d="M43.7586 15.6235L45.7764 17.2199C46.1574 17.5239 46.4653 17.9097 46.6771 18.3487C46.8889 18.7878 46.9992 19.2688 47 19.7563V43.7587C47 44.6184 46.6585 45.4428 46.0506 46.0507C45.4427 46.6586 44.6183 47.0001 43.7586 47.0001H3.24138C2.38171 47.0001 1.55725 46.6586 0.949378 46.0507C0.341502 45.4428 0 44.6184 0 43.7587V19.7563C0.000761325 19.2688 0.111129 18.7878 0.322934 18.3487C0.53474 17.9097 0.842562 17.5239 1.22362 17.2199L3.24138 15.6235H43.7586Z" fill="#F29C1F"/>
<path fill-rule="evenodd" clip-rule="evenodd" d="M3.24121 38.6859V1.62069C3.24249 1.19125 3.41366 0.779766 3.71732 0.476106C4.02098 0.172445 4.43246 0.00128255 4.8619 0L42.1378 0C42.5672 0.00128255 42.9787 0.172445 43.2823 0.476106C43.586 0.779766 43.7572 1.19125 43.7585 1.62069V37.8431L3.24121 38.6859Z" fill="#EDEDED"/>
<path d="M23.5001 25.9311C29.7657 25.9311 34.8449 20.8519 34.8449 14.5863C34.8449 8.32071 29.7657 3.24146 23.5001 3.24146C17.2345 3.24146 12.1553 8.32071 12.1553 14.5863C12.1553 20.8519 17.2345 25.9311 23.5001 25.9311Z" fill="#005FE4"/>
<path fill-rule="evenodd" clip-rule="evenodd" d="M21.0687 21.0688C20.8558 21.0692 20.645 21.0275 20.4483 20.946C20.2517 20.8645 20.0731 20.7448 19.9229 20.594L16.6815 17.3526C16.3863 17.0469 16.2229 16.6375 16.2266 16.2126C16.2303 15.7877 16.4008 15.3812 16.7013 15.0807C17.0017 14.7802 17.4082 14.6098 17.8332 14.6061C18.2581 14.6024 18.6675 14.7657 18.9732 15.0609L21.0687 17.1557L28.0263 10.1989C28.1758 10.0441 28.3547 9.92062 28.5524 9.83568C28.7501 9.75074 28.9628 9.70603 29.178 9.70416C29.3932 9.70229 29.6066 9.7433 29.8058 9.82479C30.005 9.90628 30.1859 10.0266 30.3381 10.1788C30.4903 10.331 30.6106 10.5119 30.6921 10.7111C30.7736 10.9103 30.8146 11.1237 30.8127 11.3389C30.8108 11.5541 30.7661 11.7667 30.6812 11.9645C30.5963 12.1622 30.4728 12.341 30.318 12.4905L22.2145 20.594C22.0644 20.7448 21.8858 20.8645 21.6891 20.946C21.4925 21.0275 21.2816 21.0692 21.0687 21.0688Z" fill="#ECF0F1"/>
<path fill-rule="evenodd" clip-rule="evenodd" d="M47.0005 20.1858V43.7587C47.0024 44.2135 46.9073 44.6634 46.7214 45.0784C46.5356 45.4935 46.2633 45.8641 45.9228 46.1654L30.6396 34.2858L47.0005 20.1858Z" fill="#F0C419"/>
<path fill-rule="evenodd" clip-rule="evenodd" d="M45.9226 46.1652C45.3297 46.7018 44.5587 46.9993 43.759 46.9999H3.24175C2.44206 46.9993 1.67107 46.7018 1.07812 46.1652L16.3612 34.2856L22.4955 29.5208C22.7824 29.2963 23.1361 29.1743 23.5004 29.1743C23.8646 29.1743 24.2184 29.2963 24.5052 29.5208L30.6395 34.2856L45.9226 46.1652Z" fill="#F3D55B"/>
<path fill-rule="evenodd" clip-rule="evenodd" d="M16.3609 34.2858L1.07779 46.1654C0.73726 45.8641 0.464972 45.4935 0.279115 45.0784C0.0932572 44.6634 -0.00189039 44.2135 2.84555e-05 43.7587V20.1858L16.3609 34.2858Z" fill="#F0C419"/>
</svg>
