<svg width="15" height="15" viewBox="0 0 15 15" fill="none" xmlns="http://www.w3.org/2000/svg">
<path fill-rule="evenodd" clip-rule="evenodd" d="M7.50116 11.2069L10.8928 13.3661L9.9928 9.30111L13.0616 6.50212L9.02572 6.1415L7.49987 2.3513L5.97393 6.13321L1.9386 6.49378L5.00737 9.29278L4.1071 13.3591L7.50116 11.2069ZM3.03509 13.575L3.90592 9.64163L1.0005 6.99163C0.470088 6.5083 0.755088 5.59163 1.45175 5.5333L5.2755 5.19163L6.77176 1.4833C7.04092 0.808301 7.95926 0.808301 8.22842 1.4833L9.72467 5.19997L13.5484 5.54163C14.2451 5.59997 14.5301 6.51663 13.9997 6.99997L11.0943 9.64997L11.9651 13.5833C12.1234 14.3 11.3872 14.8666 10.7855 14.4833L7.50009 12.3916L4.21467 14.475C3.613 14.8583 2.87675 14.2916 3.03509 13.575Z" fill="#FFCA00"/>
</svg>
