<svg xmlns="http://www.w3.org/2000/svg" width="38" height="38" viewBox="0 0 38 38" fill="none">
    <circle cx="19" cy="19" r="19" fill="#551756"/>
    <path d="M32.4181 20.541C32.7231 20.2233 32.9999 19.8787 33.2452 19.5111C33.2452 19.5111 33.2452 19.5111 33.2452 19.5111L33.5036 19.1242C33.5589 19.0414 33.5597 18.9336 33.5058 18.8499L33.2474 18.4491L33.2474 18.4491L33.246 18.447C33.0024 18.0774 32.7252 17.732 32.418 17.4156C32.1342 17.1132 31.8346 16.8267 31.5204 16.5574L31.5198 16.5569C30.9007 16.0295 30.2343 15.5628 29.5296 15.1628L29.5288 15.1623C28.1482 14.3854 26.6533 13.8423 25.1023 13.5543C24.9719 13.53 24.8453 13.6118 24.8138 13.7407L24.7572 13.9724C24.7264 14.0981 24.7967 14.2265 24.9193 14.2683C26.303 14.7405 27.6027 15.4393 28.7677 16.3376C29.3292 16.7773 29.8487 17.2704 30.3193 17.8104L30.3193 17.8104L30.3218 17.8132C30.5575 18.0757 30.7787 18.3515 30.9843 18.6394L30.9848 18.6402C31.0645 18.7508 31.1399 18.8644 31.2111 18.9807C31.1399 19.097 31.0645 19.2106 30.9848 19.3212L30.9846 19.3215C30.7782 19.6092 30.5567 19.8853 30.3214 20.1487L30.3213 20.1487L30.3194 20.1509C29.8486 20.6901 29.3291 21.1826 28.7677 21.6216C27.6039 22.5222 26.3039 23.2219 24.9195 23.693C24.7968 23.7348 24.7264 23.8633 24.7572 23.9891L24.8116 24.2115C24.843 24.3402 24.9695 24.422 25.0998 24.398C26.6504 24.1119 28.1448 23.5694 29.5244 22.7921L29.5253 22.7916C30.2295 22.3911 30.8957 21.9245 31.5152 21.3978L31.5152 21.3977C31.8311 21.129 32.1325 20.843 32.4181 20.541ZM32.4181 20.541C32.4179 20.5413 32.4177 20.5415 32.4175 20.5417L32.2372 20.3686M32.4181 20.541C32.4184 20.5408 32.4186 20.5406 32.4188 20.5403L32.2372 20.3686M32.2372 20.3686C31.9575 20.6643 31.6624 20.9442 31.3532 21.2073L33.0373 19.3723C32.7999 19.7279 32.5322 20.0613 32.2372 20.3686ZM25.1384 23.8818C26.4976 23.4026 27.7743 22.7065 28.9212 21.819C29.4952 21.37 30.0265 20.8665 30.5078 20.3153C30.7491 20.0452 30.9761 19.7622 31.1877 19.4673L25.1384 23.8818ZM25.1384 23.8818C25.0953 23.8901 25.0522 23.8983 25.009 23.9063L25.0126 23.9254" fill="#FFFAD0" stroke="#FFFAD0" stroke-width="0.5" stroke-linejoin="round"/>
    <path d="M5.87873 17.4111C5.57376 17.7288 5.29702 18.0735 5.05171 18.441C5.0517 18.441 5.05169 18.4411 5.05167 18.4411L4.79332 18.828C4.73801 18.9108 4.73714 19.0185 4.7911 19.1022L5.04949 19.5031L5.04948 19.5031L5.05087 19.5052C5.29443 19.8748 5.57165 20.2201 5.87887 20.5365C6.16266 20.8389 6.46228 21.1254 6.77643 21.3948L6.77705 21.3953C7.39621 21.9226 8.06253 22.3894 8.76726 22.7894L8.76806 22.7898C10.1487 23.5668 11.6436 24.1099 13.1946 24.3979C13.3249 24.4221 13.4516 24.3403 13.4831 24.2115L13.5397 23.9798C13.5705 23.854 13.5001 23.7256 13.3776 23.6838C11.9939 23.2117 10.6941 22.5129 9.52913 21.6146C8.96771 21.1749 8.4482 20.6817 7.97758 20.1417L7.9776 20.1417L7.9751 20.1389C7.73934 19.8764 7.51816 19.6006 7.3126 19.3127L7.31203 19.3119C7.23241 19.2013 7.15693 19.0877 7.08573 18.9714C7.15693 18.8551 7.23241 18.7415 7.31203 18.6309L7.31224 18.6306C7.51872 18.343 7.74013 18.0668 7.97552 17.8035L7.97553 17.8035L7.97744 17.8013C8.44823 17.262 8.96781 16.7696 9.5292 16.3305C10.693 15.4299 11.993 14.7303 13.3774 14.2591C13.5001 14.2174 13.5705 14.0889 13.5397 13.9631L13.4853 13.7406C13.4538 13.6119 13.3274 13.5301 13.1971 13.5542C11.6465 13.8403 10.1521 14.3827 8.77247 15.16L8.77162 15.1605C8.06733 15.561 7.40115 16.0277 6.78172 16.5544L6.78169 16.5544C6.46578 16.8232 6.16436 17.1091 5.87873 17.4111ZM5.87873 17.4111C5.87895 17.4109 5.87916 17.4107 5.87938 17.4104L6.05972 17.5836M5.87873 17.4111C5.87851 17.4113 5.87829 17.4116 5.87808 17.4118L6.05972 17.5836M6.05972 17.5836C6.33934 17.2879 6.63443 17.0079 6.94368 16.7448L5.25962 18.5799C5.49696 18.2242 5.76471 17.8908 6.05972 17.5836ZM13.1585 14.0704C11.7993 14.5496 10.5225 15.2457 9.37571 16.1332C8.80163 16.5821 8.27039 17.0856 7.78911 17.6369C7.54778 17.9069 7.3208 18.19 7.10914 18.4849L13.1585 14.0704ZM13.1585 14.0704C13.2016 14.062 13.2447 14.0538 13.2878 14.0459L13.2843 14.0267" fill="#FFFAD0" stroke="#FFFAD0" stroke-width="0.5" stroke-linejoin="round"/>
</svg>
