<!-- icon666.com - MILLIONS vector ICONS FREE -->
<svg id="Mental_Health_Outline" fill="currentColor"  viewBox="0 0 128 128" xmlns="http://www.w3.org/2000/svg" data-name="Mental Health Outline">
  <path
    fill="currentColor"  d="m94.559 126.2h-35.195a3.407 3.407 0 0 1 -3.364-2.821c-1.243-7.108-2.784-12.237-4.021-13.389-2.087-1.94-6.991-1.424-10.932-1.009-1.327.14-2.58.273-3.7.318-9.67.488-10.233-5.734-10.786-11.76a36.514 36.514 0 0 0 -1.093-6.94 8.362 8.362 0 0 0 -4.126-5.165c-1.613-1.064-3.442-2.27-3.282-5.32.077-1.476 1.24-2.763 2.712-4.392 2.269-2.512 5.376-5.951 5.389-11.391.007-1.41-.14-3.293-.282-5.113-.114-1.471-.222-2.861-.259-4.054a31.611 31.611 0 0 1 .077-3.39 1.236 1.236 0 0 1 1.342-1.15 1.249 1.249 0 0 1 1.15 1.342 28.921 28.921 0 0 0 -.07 3.12c.035 1.136.141 2.5.253 3.938.146 1.871.3 3.805.289 5.316-.015 6.395-3.637 10.4-6.034 13.057-1 1.111-2.04 2.258-2.07 2.848-.082 1.558.563 2.048 2.161 3.1a10.852 10.852 0 0 1 5.149 6.55 38.9 38.9 0 0 1 1.183 7.415c.566 6.152.9 9.868 8.182 9.491 1.054-.043 2.269-.171 3.554-.307 4.674-.494 9.975-1.052 12.9 1.665 2.167 2.015 3.8 9.154 4.782 14.788a.91.91 0 0 0 .9.753h35.2a.911.911 0 0 0 .737-.367.889.889 0 0 0 .146-.8c-1.186-4.077-3.234-11.878-3.643-18.307-.252-3.966.9-9.811 3.6-13.309 10.057-13.058 13.412-23.348 11.571-35.517a41.5 41.5 0 0 0 -5.322-15.353 1.25 1.25 0 1 1 2.14-1.293 44 44 0 0 1 5.654 16.273c1.929 12.746-1.681 23.937-12.072 37.417-2.294 2.977-3.3 8.212-3.085 11.626.393 6.19 2.392 13.788 3.548 17.768a3.411 3.411 0 0 1 -3.283 4.362z"></path>
  <path fill="currentColor"  d="m34.317 92.626h-7.356a1.25 1.25 0 0 1 0-2.5h7.356a1.25 1.25 0 1 1 0 2.5z"></path>
  <circle fill="currentColor"  cx="33.397" cy="66.247" r="2.15"></circle>
  <path fill="currentColor"  d="m55.172 58.952c-.773 0-2.458-.8-8.522-5.329h-7.222a18.266 18.266 0 0 1 -18.115-18.269c-.013-.762-.013-1.531 0-2.313a18.252 18.252 0 0 1 18.111-18.236c4.2-.014 8.4-.014 12.6 0a18.257 18.257 0 0 1 18.115 18.256v2.292a18.3 18.3 0 0 1 -14.5 17.885 14.029 14.029 0 0 1 .84 4.564 1.4 1.4 0 0 1 -.807 1.03 1.183 1.183 0 0 1 -.5.12zm-8.106-7.829a1.249 1.249 0 0 1 .749.25c2 1.5 4.3 3.132 5.853 4.139-.228-.9-.542-1.959-.85-2.866a1.25 1.25 0 0 1 1.031-1.646 15.787 15.787 0 0 0 13.79-15.652v-2.285a15.753 15.753 0 0 0 -15.618-15.758c-4.2-.015-8.389-.015-12.589 0a15.752 15.752 0 0 0 -15.619 15.759c-.013.773-.013 1.514 0 2.267a15.765 15.765 0 0 0 15.618 15.792z"></path>
  <path fill="currentColor"  d="m73.507 93.291a1.19 1.19 0 0 1 -.494-.118 1.4 1.4 0 0 1 -.8-1.032c-.164-1.08.439-4.257.867-6.287a20.572 20.572 0 1 1 9.233 1.976c-6.295 4.644-8.024 5.461-8.806 5.461zm8.385-44.083a18.066 18.066 0 0 0 -6.9 34.761 1.251 1.251 0 0 1 .742 1.426c-.339 1.531-.676 3.276-.877 4.571 1.606-1.016 4.123-2.78 6.291-4.387a1.257 1.257 0 0 1 .745-.245 18.063 18.063 0 0 0 0-36.126z"></path>
  <path fill="currentColor"  d="m83.9 43.749a1.186 1.186 0 0 1 -.474-.111 1.384 1.384 0 0 1 -.813-1.028 26.652 26.652 0 0 1 .544-5.444 11.506 11.506 0 0 1 -9.267-10.257l-1.159-12.532a11.55 11.55 0 0 1 11.496-12.627h21.18a11.55 11.55 0 0 1 11.411 13.323l-1.953 12.539a11.473 11.473 0 0 1 -11.411 9.766l-10.09.11c-6.904 5.359-8.664 6.261-9.464 6.261zm.324-39.5a8.938 8.938 0 0 0 -6.68 2.951 9.078 9.078 0 0 0 -2.324 6.944l1.162 12.53a9.019 9.019 0 0 0 8.329 8.178 1.249 1.249 0 0 1 1.136 1.473c-.248 1.342-.489 2.865-.634 4.045 1.727-1.159 4.529-3.232 6.949-5.115a1.251 1.251 0 0 1 .754-.264l10.524-.115a8.992 8.992 0 0 0 8.955-7.649l1.953-12.541a9.051 9.051 0 0 0 -8.941-10.436z"></path>
  <path fill="currentColor"  d="m30.483 50.983a1.25 1.25 0 0 1 -.883-2.133l30.821-30.823a1.25 1.25 0 0 1 1.768 1.773l-30.822 30.817a1.246 1.246 0 0 1 -.884.366z"></path>
  <path fill="currentColor"  d="m79.171 35.285a1.25 1.25 0 0 1 -.884-2.134l30.23-30.23a1.25 1.25 0 0 1 1.768 1.767l-30.23 30.231a1.246 1.246 0 0 1 -.884.366z"></path>
  <path fill="currentColor"  d="m68.99 82.754a1.25 1.25 0 0 1 -.884-2.134l27.207-27.207a1.25 1.25 0 0 1 1.768 1.768l-27.207 27.207a1.248 1.248 0 0 1 -.884.366z"></path>
  <path fill="currentColor"  d="m45.873 43.033a22.62 22.62 0 0 1 -16.027-6.353 2.627 2.627 0 0 1 -.231-3.512 19.819 19.819 0 0 1 15.186-7.2 21.868 21.868 0 0 1 17 6.846 2.624 2.624 0 0 1 0 3.522 21.019 21.019 0 0 1 -15.174 6.685c-.251.009-.503.012-.754.012zm-14.259-8.121a20.235 20.235 0 0 0 14.939 5.611 18.528 18.528 0 0 0 13.377-5.842.127.127 0 0 0 0-.2c-3.5-3.944-9.13-6.167-15.052-6.009a17.336 17.336 0 0 0 -13.295 6.238c-.033.042-.075.1.031.2z"></path>
  <path fill="currentColor"  d="m45.764 40.651a6.156 6.156 0 1 1 6.156-6.156 6.163 6.163 0 0 1 -6.156 6.156zm0-9.811a3.656 3.656 0 1 0 3.656 3.655 3.66 3.66 0 0 0 -3.656-3.655z"></path>
  <path fill="currentColor"  d="m92 37.853a1.249 1.249 0 0 1 -1.21-.943 30.412 30.412 0 0 1 -.655-4.627 31.067 31.067 0 0 0 -.93-5.91 7.016 7.016 0 0 0 -3.46-4.325c-1.422-.937-3.033-2-2.891-4.714.069-1.328 1.084-2.451 2.369-3.873 2.031-2.248 4.558-5.046 4.569-9.636a1.25 1.25 0 0 1 1.25-1.247 1.25 1.25 0 0 1 1.247 1.253c-.013 5.549-3.143 9.013-5.214 11.306-.76.841-1.7 1.886-1.727 2.328-.064 1.223.4 1.6 1.77 2.5a9.454 9.454 0 0 1 4.482 5.705 33.637 33.637 0 0 1 1.02 6.385 28.6 28.6 0 0 0 .588 4.24 1.251 1.251 0 0 1 -.9 1.519 1.264 1.264 0 0 1 -.308.039z"></path>
  <path fill="currentColor"  d="m98.435 30.472h-3.935a1.25 1.25 0 0 1 0-2.5h3.938a.91.91 0 0 0 .733-1.45.915.915 0 0 0 -.733-.371h-5.21a1.25 1.25 0 0 1 0-2.5h5.207a3.411 3.411 0 0 1 0 6.821z"></path>
  <path fill="currentColor"  d="m80.486 78.646a6.993 6.993 0 0 1 -4.051-1.3 1.25 1.25 0 1 1 1.429-2.046 4.7 4.7 0 0 0 4.425.528 10.546 10.546 0 0 0 6.033-6.5c1.181-3.827.248-8.578-3.806-9.847-2.425-.776-6.166.348-8.318 3.942a1.25 1.25 0 1 1 -2.144-1.285c2.842-4.744 7.794-6.128 11.214-5.042 5.593 1.751 6.98 7.989 5.442 12.97a13.041 13.041 0 0 1 -7.61 8.122 8.025 8.025 0 0 1 -2.614.458z"></path>
  <path fill="currentColor"  d="m85.585 61.962a5.978 5.978 0 0 0 -4.691.428 6.9 6.9 0 0 0 -1.422.921c-.014.008-.024.02-.037.028-.027.023-.06.043-.087.066a5.958 5.958 0 0 0 -.658.605 10.717 10.717 0 0 0 -1.448 1.761 1.25 1.25 0 0 0 2.07 1.4 8.541 8.541 0 0 1 1.148-1.4c.074-.078.148-.152.228-.226a1.928 1.928 0 0 1 .676-.034 2.716 2.716 0 0 1 1.576 1.069 1.25 1.25 0 1 0 2.106-1.348 5.241 5.241 0 0 0 -.928-1.044 2.638 2.638 0 0 1 .554.1 1.25 1.25 0 0 0 .913-2.328z"></path>
</svg>
