<!-- icon666.com - MILLIONS vector ICONS FREE -->
<svg id="Layer_1" fill="currentColor" enable-background="new 0 0 50 50" viewBox="0 0 50 50" xmlns="http://www.w3.org/2000/svg">
  <g>
    <path fill="currentColor" d="m19.77889 24.59082c5.51563 0 10.24219-7.24072 10.24219-13.16846 0-5.74707-4.59473-10.42236-10.24219-10.42236s-10.24219 4.67529-10.24219 10.42236c0 5.92774 4.72656 13.16846 10.24219 13.16846zm0-21.59082c3.49951 0 6.48877 2.24414 7.68237 5.39478-2.32397 1.42432-4.68604-.15918-4.78687-.22778-.43262-.30371-1.03613-.21094-1.36621.20654-.12036.15234-2.96094 3.59167-9.19995-.01123 1.20142-3.13379 4.18287-5.36231 7.67066-5.36231zm-8.1731 7.38525c2.22119 1.19531 4.11475 1.61816 5.67895 1.61816 2.47559 0 4.13086-1.05566 4.96875-1.77051 1.35474.67651 3.55615 1.19287 5.70044.16614.04028.33606.06714.67627.06714 1.02332 0 4.92285-3.88086 11.16846-8.24219 11.16846s-8.24219-6.24561-8.24219-11.16846c.00001-.3518.02784-.69653.0691-1.03711z"></path>
    <path fill="currentColor" d="m2.20467 49h35.14941c.55273 0 1-.44775 1-1v-8.46436c0-5.73779-3.74072-10.61011-8.90796-12.33008l3.18042-5.57031 5.60156 2.61768c.54554.25547 1.18962-.02571 1.37598-.59912l5.75952-17.86475 1.52661 3.25977c.23442.5005.83056.71469 1.3291.48145.5-.23438.71582-.82959.48145-1.33008l-2.58398-5.51758c-.11328-.24268-.32031-.42969-.57324-.51904-.25195-.08838-.53125-.07275-.77246.04541l-5.43164 2.66357c-.49609.24316-.7002.84229-.45703 1.33838.24121.49463.83984.7002 1.33789.45752l3.27563-1.6062-5.44751 16.89917-5.40918-2.52783c-.47363-.22266-1.03418-.04102-1.29199.40967l-3.92456 6.87305c-.67554-.10864-1.36304-.18066-2.0686-.18066-.54546.00014-10.51306.00411-11.14941 0-7.16797 0-13 5.83154-13 13v8.46434c-.00001.55225.44726 1 .99999 1zm16.41504-16.28418h2.31934l1.68115 7.60571-2.84131 3.36108-2.84131-3.36108zm2.39648-2h-2.47363l-.72656-2.18018h3.93335zm-17.81152 8.81982c0-6.06543 4.93457-11 11-11h1.50439l1.07422 3.22314c-1.78271 8.64399-2.25196 8.80468-1.69287 9.47559l3.9248 4.64258c.19043.22461.46973.35449.76367.35449s.57324-.12988.76367-.35449l3.9248-4.64258c.1617-.19404.26941-.60135.21289-.86133l-1.90454-8.61365 1.08447-3.22375h1.4939c6.06543 0 11 4.93457 11 11v7.46436h-5.89063v-8.13428c0-.55225-.44727-1-1-1s-1 .44775-1 1v8.13428h-17.36814v-8.13428c0-.55225-.44727-1-1-1s-1 .44775-1 1v8.13428h-5.89063z"></path>
  </g>
</svg>
