<svg width="90" height="90" viewBox="0 0 90 90" fill="none" stroke="currentColor" xmlns="http://www.w3.org/2000/svg">
<path d="M28.5 31.2501H30.0641C32.8004 31.2501 35.0284 33.4496 35.0637 36.1856L35.1397 42.0775C35.182 45.3608 37.8557 48.0001 41.1392 48.0001H49.7466C53.0603 48.0001 55.7466 45.3138 55.7466 42.0001V36.2501C55.7466 33.4887 57.9852 31.2501 60.7466 31.2501H62.5" stroke="currentColor" stroke-width="4"/>
<path d="M45.5 29.0001V62.0001" stroke="currentColor" stroke-width="4"/>
<path d="M38.5 60.0001H45.7593H52.5" stroke="currentColor" stroke-width="4"/>
<path d="M73.5 40.0001C74.1667 52.1668 68.3 75.6001 39.5 72.0001" stroke="currentColor" stroke-width="3"/>
<path d="M45.4504 17.0335C35.6047 17.1057 16.0563 23.1519 16.629 46.7585" stroke="currentColor" stroke-width="3"/>
<path d="M24.9071 18.1382C30.179 13.5689 45.2672 6.93196 63.4439 16.9382" stroke="currentColor"/>
<path d="M17 62C19.5589 67.5354 28.7706 78.7267 45.1464 79.2087" stroke="currentColor"/>
<path d="M76.0711 29.0001C79.7371 33.9585 84.5552 47.7001 74.5 63.0001" stroke="currentColor"/>
</svg>
